<?xml version="1.0" encoding="UTF-8"?>
<svg version="1.1" xmlns="http://www.w3.org/2000/svg"  width="1064" height="934">
<path d="M0 0 C1.02404336 -0.00657338 1.02404336 -0.00657338 2.06877446 -0.01327956 C4.33819073 -0.02654829 6.60756828 -0.03281944 8.87701416 -0.03897095 C10.51222402 -0.04688173 12.14743217 -0.05515127 13.78263855 -0.06375122 C19.13992673 -0.08987197 24.49722229 -0.10527509 29.85455322 -0.11953735 C31.7074509 -0.12490228 33.56034855 -0.1302798 35.41324615 -0.13566971 C43.13057658 -0.15728933 50.84790501 -0.17601937 58.56525803 -0.1872921 C69.57619748 -0.20348805 80.58678172 -0.23657016 91.59758735 -0.29369295 C99.36526461 -0.33259689 107.13284772 -0.35194916 114.90061975 -0.35721266 C119.52629296 -0.36084001 124.15158651 -0.37257777 128.77715302 -0.4053154 C165.01136262 -0.64918293 165.01136262 -0.64918293 180.87017822 5.15390015 C182.76336465 5.71511519 184.65942918 6.2668212 186.55963135 6.80380249 C190.65203647 8.06550425 194.72912916 9.37541464 198.80133057 10.70077515 C200.5388379 11.26089916 202.28022827 11.8090958 204.02496338 12.34628296 C206.59709188 13.13894851 209.15562857 13.96626664 211.71392822 14.80233765 C212.88091248 15.15115494 212.88091248 15.15115494 214.07147217 15.50701904 C219.2651184 17.26603765 219.2651184 17.26603765 221.0149231 19.83369446 C222.43805447 23.07677515 223.34399202 26.49143377 223.99517822 29.96640015 C224.14213135 30.71534546 224.28908447 31.46429077 224.44049072 32.2359314 C225.85488902 41.84098165 226.1063136 51.39616171 226.12017822 61.09140015 C226.12251465 61.83870392 226.12485107 62.58600769 226.1272583 63.35595703 C226.14746642 80.71541942 224.65827347 97.89909809 222.87017822 115.15390015 C238.52888293 88.756384 252.6271327 61.8581205 256.87017822 31.15390015 C271.34419168 35.42492051 286.87219571 44.29085307 294.72564697 57.7437439 C301.07915978 71.12298418 302.22479636 85.37874357 297.62017822 99.46640015 C294.80195223 107.14750859 291.5970168 114.67865033 288.44830322 122.2281189 C284.03223743 132.84986757 279.69588367 143.5011556 275.43267822 154.18515015 C275.16395149 154.85843542 274.89522476 155.5317207 274.6183548 156.22540855 C272.69978553 161.03390677 270.78458506 165.84374351 268.87017822 170.65390015 C266.6849961 176.1444093 264.49832135 181.63431725 262.30767822 187.12265015 C262.03792868 187.79855509 261.76817913 188.47446003 261.49025536 189.17084694 C257.69300389 198.67792686 253.82206088 208.15097751 249.88970947 217.6031189 C245.5983911 227.91845193 241.39445841 238.26441759 237.25689697 248.6421814 C236.98111942 249.33368664 236.70534187 250.02519188 236.42120743 250.73765182 C233.8926546 257.07981733 231.3694614 263.42411213 228.84747314 269.76889038 C227.17410283 273.97771439 225.49822115 278.1855298 223.81939697 282.3921814 C223.42121073 283.38994787 223.42121073 283.38994787 223.01498032 284.40787125 C219.15235153 294.07431193 215.18040416 303.67722116 210.87017822 313.15390015 C211.73103027 313.41944702 212.59188232 313.6849939 213.4788208 313.95858765 C216.88499247 315.15912155 219.93147582 316.60941061 223.13189697 318.27890015 C223.71541428 318.58180466 224.29893158 318.88470917 224.90013123 319.1967926 C226.78821403 320.17827295 228.67296294 321.16597101 230.55767822 322.15390015 C231.8734153 322.83955012 233.18933481 323.52485011 234.50543213 324.20980835 C238.29694384 326.18496346 242.08426644 328.16803637 245.87017822 330.15390015 C246.80781006 330.64551636 247.74544189 331.13713257 248.71148682 331.64364624 C252.54578828 333.65618323 256.37689989 335.67467526 260.20611572 337.6968689 C265.58434262 340.53466767 270.97762695 343.34344708 276.37017822 346.15390015 C278.31290535 347.16818706 280.25561387 348.18250963 282.19830322 349.1968689 C285.85053935 351.10316709 289.50695054 353.00103682 293.16705322 354.8921814 C320.3789445 368.99687097 341.02474842 385.43064408 351.87017822 415.15390015 C355.45483122 426.87403513 356.02261666 438.00999741 356.03131104 450.19198608 C356.03594631 451.71062336 356.04097191 453.22925948 356.0463562 454.74789429 C356.05941255 458.85553289 356.06591169 462.96315519 356.07036686 467.07081127 C356.07330812 469.64255933 356.07741483 472.21430304 356.08187103 474.78604889 C356.09552719 482.84847928 356.10520344 490.9108996 356.10907292 498.97334075 C356.11355132 508.25084779 356.13109701 517.52820733 356.16007352 526.80566955 C356.18174919 533.99746934 356.19178031 541.1892278 356.19311404 548.38105989 C356.19415772 552.66713034 356.19997192 556.9530618 356.21793365 561.2390976 C356.23451693 565.2742483 356.23652061 569.30915701 356.22779465 573.34432983 C356.22702977 574.81640526 356.23129358 576.28849426 356.2412529 577.76053619 C356.34462147 594.00521107 353.1897648 608.14025564 341.84283447 620.31015015 C331.41072611 630.06055638 318.91051002 635.03375143 304.63970947 635.1890564 C289.9856317 634.47123419 277.26772787 629.10329133 267.05767822 618.46640015 C256.69186435 606.24291354 254.57722666 593.62670221 254.55133057 578.09701538 C254.5420163 576.69668509 254.53184544 575.29636028 254.52088928 573.89604187 C254.49374389 570.1198473 254.47848612 566.34368971 254.46546125 562.56742358 C254.44976255 558.61159224 254.42299404 554.65583566 254.39743042 550.70005798 C254.3507614 543.22053369 254.31396005 535.74099515 254.28075755 528.26140028 C254.24245192 519.74135568 254.19306404 511.22138638 254.14277339 502.70140541 C254.03963031 485.18562491 253.95031296 467.66980071 253.87017822 450.15390015 C250.17455073 448.22565732 246.47890871 446.29744232 242.78326416 444.36923218 C241.22084488 443.55401848 241.22084488 443.55401848 239.62686157 442.72233582 C234.50531637 440.05017563 229.38360339 437.37834119 224.26080322 434.70858765 C214.85442788 429.80578591 205.45560885 424.88933436 196.07232666 419.94247437 C188.86356361 416.14448779 181.63839562 412.37820726 174.41265869 408.61264038 C168.43257058 405.49482946 162.46021241 402.36290443 156.49517822 399.21640015 C149.13454898 395.33442445 141.75530809 391.48904376 134.37017822 387.65390015 C126.22520172 383.42416348 118.08986158 379.17740301 109.97393799 374.8921814 C105.72972059 372.65291767 101.47830718 370.4285089 97.21783447 368.2203064 C60.73761747 349.3101284 60.73761747 349.3101284 51.87017822 341.15390015 C50.9704126 340.34565796 50.07064697 339.53741577 49.14361572 338.7046814 C33.07183877 323.54053923 21.76401784 301.46264734 20.87017822 279.15390015 C20.81861572 278.14456421 20.76705322 277.13522827 20.71392822 276.0953064 C20.06781686 252.37763508 29.48065143 231.2503915 38.20220947 209.6890564 C39.12120687 207.40751602 40.03979239 205.1258097 40.95799255 202.84394836 C43.37277608 196.84583324 45.79278952 190.84984247 48.21405029 184.8543396 C50.61989803 178.8948122 53.02136131 172.9335193 55.4229126 166.97225952 C58.23570893 159.99053632 61.04878192 153.00892654 63.86434937 146.02832031 C70.34915802 129.94809556 76.80288298 113.85567002 83.22267151 97.74937439 C83.53369371 96.96992777 83.84471592 96.19048115 84.16516304 95.38741493 C84.73878032 93.94980179 85.31169372 92.51190752 85.88375664 91.07367516 C87.75761461 86.37902736 87.75761461 86.37902736 88.87017822 84.15390015 C60.16017822 84.15390015 31.45017822 84.15390015 1.87017822 84.15390015 C0.88017822 87.12390015 -0.10982178 90.09390015 -1.12982178 93.15390015 C-2.38554443 96.04428936 -3.66660465 98.89140558 -5.01654053 101.7359314 C-5.3903183 102.53489334 -5.76409607 103.33385529 -6.14920044 104.1570282 C-6.95084821 105.87022257 -7.75451162 107.58247498 -8.56002808 109.29385376 C-10.72290653 113.891342 -12.86845569 118.49688573 -15.01263428 123.1031189 C-15.44779861 124.03768921 -15.88296295 124.97225952 -16.33131409 125.93515015 C-20.38893013 134.6710499 -24.30788236 143.46495277 -28.19232178 152.27890015 C-33.57636775 164.47760023 -39.04729331 176.63331665 -44.62271118 188.74588013 C-45.40852498 190.45321092 -46.19316531 192.16108238 -46.97653198 193.86953735 C-61.70098665 225.96006173 -61.70098665 225.96006173 -76.53216553 232.1578064 C-88.90912339 236.42075195 -99.93834624 236.1511674 -112.12982178 231.15390015 C-115.40090901 229.43410125 -118.2626585 227.48030178 -121.12982178 225.15390015 C-121.75501709 224.65245483 -122.3802124 224.15100952 -123.02435303 223.6343689 C-131.10136804 216.40200905 -135.40688326 205.84736566 -136.12982178 195.15390015 C-136.43972218 180.78226893 -129.26654994 167.97607647 -123.34609985 155.24978638 C-121.8354156 152.00231585 -120.3340205 148.75057643 -118.83201599 145.49908447 C-118.05846472 143.82466381 -117.28446683 142.1504494 -116.51002502 140.47644043 C-112.82613745 132.51033665 -109.1916417 124.52223831 -105.56732178 116.52890015 C-104.34243916 113.82950982 -103.11709522 111.13032915 -101.89154053 108.4312439 C-101.43466858 107.42499718 -101.43466858 107.42499718 -100.96856689 106.39842224 C-98.65976253 101.3155033 -96.34384428 96.23585681 -94.02435303 91.1578064 C-93.50983582 90.03125389 -93.50983582 90.03125389 -92.98492432 88.88194275 C-91.27464052 85.13879914 -89.56168626 81.39690818 -87.84417725 77.65707397 C-84.85068744 71.13507891 -81.87623986 64.60836303 -78.99310303 58.03671265 C-74.33629792 47.47456749 -69.97709007 37.76643923 -62.12982178 29.15390015 C-61.68557861 28.65503296 -61.24133545 28.15616577 -60.78363037 27.6421814 C-45.22794607 10.35215836 -23.39724572 0.1072939 0 0 Z " fill="#525B5B" transform="translate(308.12982177734375,165.84609985351563)"/>
<path d="M0 0 C1.07633698 -0.00700928 2.15267395 -0.01401855 3.2616272 -0.02124023 C6.78536522 -0.03870641 10.30828644 -0.02723743 13.83203125 -0.01367188 C16.30102694 -0.01637004 18.7700216 -0.02025516 21.23901367 -0.02526855 C26.4000058 -0.03114824 31.56072 -0.02264969 36.72167969 -0.00390625 C43.31536487 0.01888181 49.90839862 0.00575058 56.50205994 -0.01819611 C61.59636281 -0.03269523 66.69051291 -0.02802915 71.78482056 -0.01768494 C74.21513955 -0.01502904 76.64547271 -0.01824708 79.07577515 -0.02760315 C82.48057456 -0.03783631 85.88433952 -0.0221721 89.2890625 0 C90.27951569 -0.00809692 91.26996887 -0.01619385 92.29043579 -0.02453613 C103.05098071 0.10436161 111.64858224 3.41199977 119.41015625 10.87695312 C126.98782532 19.83238021 128.79566224 28.89678502 128.78497314 40.20085144 C128.78942983 41.67288032 128.78942983 41.67288032 128.79397655 43.17464715 C128.80265502 46.46629357 128.80417108 49.75790359 128.80566406 53.04956055 C128.81029285 55.40842771 128.81531759 57.76729412 128.82070923 60.12615967 C128.83519799 67.206128 128.84121685 74.28608854 128.84610474 81.36606905 C128.84868479 84.70352778 128.85247475 88.04098519 128.85622406 91.37844276 C128.8684146 102.47816281 128.87871414 113.57788094 128.88209915 124.67760754 C128.88231872 125.38761062 128.88253828 126.09761371 128.8827645 126.82913204 C128.88298278 127.54079941 128.88320106 128.25246678 128.88342595 128.98569983 C128.88386941 130.42772242 128.88431597 131.869745 128.88476562 133.31176758 C128.88498705 134.02705513 128.88520848 134.74234267 128.88543662 135.4793056 C128.8893827 147.06350984 128.90683184 158.64765111 128.93012515 170.23183104 C128.95386711 182.13559075 128.96630231 194.0393189 128.96746707 205.94310266 C128.96838226 212.62239462 128.97441588 219.30161575 128.99228668 225.98088646 C129.00877496 232.26571163 129.01091906 238.55038124 129.00214767 244.83522034 C129.00137771 247.13859791 129.00571469 249.44198388 129.01560593 251.74534035 C129.02834294 254.89687337 129.02243875 258.04785691 129.01202393 261.1993866 C129.02008033 262.10456612 129.02813673 263.00974565 129.03643727 263.94235486 C128.95923793 273.97411722 126.21274746 282.83803683 119.64453125 290.51757812 C111.134381 298.5006881 102.78872913 301.67873603 91.16996479 301.64900589 C90.42261874 301.65105852 89.67527269 301.65311116 88.90527979 301.65522599 C86.39299817 301.66089484 83.88077139 301.65943888 81.3684845 301.65802002 C79.55225855 301.66060372 77.73603316 301.66361689 75.91980857 301.66702342 C70.92231455 301.67509608 65.9248349 301.67688314 60.92733514 301.67762089 C55.53999278 301.67947097 50.15265788 301.68701808 44.76531982 301.6937561 C32.98226342 301.70734174 21.19921041 301.71336448 9.41614747 301.71776676 C2.05985266 301.72052874 -5.29644083 301.724766 -12.65273476 301.72927094 C-33.0170836 301.7414638 -53.38143139 301.75176315 -73.74578381 301.75514603 C-75.04930914 301.75536559 -76.35283448 301.75558516 -77.69586058 301.75581138 C-79.00251755 301.75602966 -80.30917452 301.75624793 -81.65542716 301.75647283 C-84.30324376 301.75691629 -86.95106036 301.75736286 -89.59887695 301.7578125 C-91.56899271 301.75814464 -91.56899271 301.75814464 -93.57890878 301.7584835 C-114.86289068 301.76243187 -136.14683373 301.77988702 -157.43080326 301.80317202 C-179.27867096 301.82688117 -201.12652148 301.83934768 -222.97440225 301.84051394 C-235.24281796 301.84143094 -247.51118908 301.84718944 -259.77959251 301.86533356 C-270.22604437 301.88072861 -280.67243785 301.8858585 -291.11889889 301.87759545 C-296.4486928 301.87368689 -301.77836911 301.87462872 -307.10814857 301.8886528 C-311.98934 301.90137907 -316.8703253 301.90020531 -321.75151638 301.88806209 C-323.51533056 301.8861029 -325.27915928 301.88919378 -327.04295304 301.89790645 C-341.28614061 301.96379741 -352.401289 300.5869575 -363.33203125 290.73632812 C-373.38420723 280.2991752 -372.99132209 267.69561952 -372.87695312 254.06591797 C-372.8555158 251.02425396 -372.87682127 247.98495142 -372.90234375 244.94335938 C-372.92023489 232.52143465 -372.4136292 221.4341796 -364.25390625 211.36914062 C-354.22322834 201.58613378 -344.16485095 200.21513557 -330.80102539 200.29052734 C-329.43055225 200.29109215 -328.0600785 200.29077355 -326.68960571 200.28964233 C-322.98553932 200.28907052 -319.2816035 200.30079701 -315.57756734 200.31479025 C-311.70051699 200.32732621 -307.82346336 200.32847036 -303.94639587 200.33084106 C-296.61195342 200.33704743 -289.27757087 200.3534468 -281.94315475 200.37354004 C-273.59007635 200.39592534 -265.23699503 200.40689908 -256.88389409 200.41693091 C-239.70771771 200.4378138 -222.53159957 200.47297332 -205.35546875 200.51757812 C-205.3643512 199.61048599 -205.37323364 198.70339386 -205.38238525 197.76881409 C-205.46275755 189.19215782 -205.52354785 180.61562926 -205.56271744 172.03868198 C-205.58353244 167.6298717 -205.61173769 163.22137436 -205.65722656 158.81274414 C-205.70090305 154.55277904 -205.72465158 150.29311367 -205.73497772 146.03294182 C-205.74233019 144.41312891 -205.75668742 142.79333115 -205.77838898 141.17364693 C-205.98666639 124.97482801 -205.98666639 124.97482801 -201.35546875 117.51757812 C-200.66904297 116.32068359 -200.66904297 116.32068359 -199.96875 115.09960938 C-194.57611588 107.76368367 -187.23015669 102.77628769 -178.35546875 100.51757812 C-173.79716012 100.09779086 -169.26222385 100.13818012 -164.6875 100.17700195 C-163.31687946 100.17784942 -161.94625757 100.17737074 -160.57563782 100.17567444 C-156.87569529 100.17481773 -153.17604771 100.19239036 -149.4761734 100.21339631 C-145.60180681 100.23221766 -141.7274326 100.23391784 -137.85302734 100.23747253 C-130.5256653 100.24677703 -123.19843839 100.27136906 -115.87113571 100.301521 C-107.52529979 100.33511485 -99.17945724 100.35156352 -90.83357048 100.36660731 C-73.67412523 100.39792016 -56.5148113 100.45064941 -39.35546875 100.51757812 C-39.36316017 99.10748506 -39.36316017 99.10748506 -39.37100697 97.66890526 C-39.37819091 96.35184908 -39.38537485 95.0347929 -39.39277649 93.67782593 C-39.39667165 92.96688601 -39.4005668 92.25594609 -39.40458 91.52346253 C-39.42603722 87.6026816 -39.44720652 83.68189945 -39.46784687 79.76111412 C-39.50693965 72.3855479 -39.54942134 65.01010873 -39.60951042 57.63467789 C-39.63018341 54.71578747 -39.63824626 51.79697838 -39.64179993 48.87802124 C-39.64636491 47.45343198 -39.6568281 46.02885329 -39.67219543 44.6043396 C-39.81468443 30.68323204 -38.10048674 20.11183054 -28.57421875 9.54101562 C-20.50792561 1.77224969 -10.86870998 -0.08885136 0 0 Z " fill="#535B5B" transform="translate(935.35546875,632.482421875)"/>
<path d="M0 0 C1.75916894 0.91456011 3.51893193 1.82797849 5.27929688 2.74023438 C10.50802644 5.4550012 15.72416566 8.1933089 20.9375 10.9375 C21.78987244 11.38583191 22.64224487 11.83416382 23.52044678 12.29608154 C27.58912329 14.43620636 31.6570268 16.57779242 35.72436523 18.72045898 C40.95433338 21.47435783 46.19451101 24.20848709 51.4375 26.9375 C59.21094563 30.98823054 66.97563635 35.05489826 74.7277832 39.14624023 C79.03325084 41.4163959 83.34619348 43.67118159 87.66796875 45.91015625 C127.84446688 66.72933709 127.84446688 66.72933709 134.9375 80.9375 C135.44990234 81.94876953 135.44990234 81.94876953 135.97265625 82.98046875 C138.03639875 87.94304956 138.26853479 92.99099436 138.375 98.3125 C138.40859619 99.33742554 138.40859619 99.33742554 138.44287109 100.38305664 C138.38723429 112.84423631 130.9287961 124.20094126 125.3125 134.9375 C124.49344418 136.5150225 123.67492555 138.09282403 122.85693359 139.67089844 C120.55954901 144.09787241 118.25061202 148.51872746 115.9375 152.9375 C115.40189453 153.96166016 114.86628906 154.98582031 114.31445312 156.04101562 C112.32048648 159.8487195 110.31754237 163.65146984 108.3046875 167.44921875 C106.47806798 170.90028673 104.67702142 174.36400405 102.8828125 177.83203125 C102.35220215 178.85586914 101.8215918 179.87970703 101.27490234 180.93457031 C100.25441164 182.90523799 99.23630714 184.87714417 98.22119141 186.85058594 C90.46217804 201.81534741 83.15787391 214.07338083 66.66796875 220.18359375 C52.26823332 224.15948637 40.25318556 220.67263153 27.4375 213.9375 C25.72856567 213.06073608 25.72856567 213.06073608 23.98510742 212.16625977 C20.62771006 210.43859363 17.28123643 208.69143099 13.9375 206.9375 C12.23569421 206.05074838 10.53387305 205.16402626 8.83203125 204.27734375 C5.78486264 202.68340081 2.74399044 201.07814714 -0.29296875 199.46484375 C-5.70079187 196.59289893 -11.13164999 193.76559174 -16.5625 190.9375 C-23.57034207 187.28559122 -30.57216059 183.62280218 -37.5625 179.9375 C-44.47068031 176.29614871 -51.38867728 172.67401809 -58.3125 169.0625 C-59.26946777 168.56266602 -60.22643555 168.06283203 -61.21240234 167.54785156 C-66.19429027 164.94737437 -71.18189588 162.35885462 -76.1796875 159.7890625 C-113.57942164 140.52381204 -113.57942164 140.52381204 -119.84375 121.57421875 C-124.26707924 103.79359925 -115.89081798 89.13759254 -107.875 73.875 C-107.2029701 72.58663385 -106.53134423 71.29805687 -105.86010742 70.00927734 C-103.93415885 66.3152091 -101.99930738 62.62588669 -100.0625 58.9375 C-99.57523438 58.00856934 -99.08796875 57.07963867 -98.5859375 56.12255859 C-96.57215867 52.28567684 -94.55240081 48.45203313 -92.52734375 44.62109375 C-90.69123631 41.14219294 -88.87523202 37.65331835 -87.06640625 34.16015625 C-84.08731641 28.40747925 -81.08483455 22.66756858 -78.0625 16.9375 C-77.67288086 16.19467773 -77.28326172 15.45185547 -76.88183594 14.68652344 C-69.83203382 1.3475053 -62.29487169 -7.01101383 -47.609375 -11.875 C-29.92424041 -16.32720172 -15.22057721 -8.01527531 0 0 Z " fill="#525B5B" transform="translate(121.0625,408.0625)"/>
<path d="M0 0 C4.77263855 1.53464995 9.13630993 3.46680199 13.57421875 5.78125 C14.64966698 6.3356929 14.64966698 6.3356929 15.74684143 6.90133667 C18.06261021 8.09665993 20.37509965 9.29817527 22.6875 10.5 C24.28793068 11.3279369 25.88851726 12.15557252 27.48925781 12.98291016 C36.86145529 17.8314651 46.21842699 22.70878967 55.54296875 27.6484375 C58.89115909 29.42042629 62.24996297 31.17095867 65.61328125 32.9140625 C66.60102539 33.42662598 67.58876953 33.93918945 68.60644531 34.46728516 C70.47320038 35.43519797 72.34091392 36.40126649 74.20996094 37.36474609 C80.32708823 40.53969855 86.36240304 43.84917747 92.38256836 47.203125 C93.21346733 47.66541504 94.0443663 48.12770508 94.90044403 48.60400391 C96.93392328 49.73547593 98.9671003 50.86748715 101 52 C101.07047204 66.1789631 101.12297315 80.35789856 101.15543652 94.53700161 C101.17102519 101.12246759 101.19213809 107.70781508 101.22631836 114.29321289 C101.25915568 120.66044831 101.276904 127.02757048 101.28463173 133.39488411 C101.29013179 135.81188805 101.30087067 138.2288865 101.31719017 140.6458416 C101.53003668 173.50588379 94.14212321 197.966547 73.70849609 223.828125 C70.9978823 227.27391241 68.34446083 230.76279034 65.6875 234.25 C64.60823127 235.66157942 63.52880054 237.07303499 62.44921875 238.484375 C57.93995188 244.38503539 53.44158054 250.29399532 48.94213867 256.20214844 C44.2800944 262.32279368 39.6094501 268.43677842 34.93359375 274.546875 C30.61477144 280.19211694 26.30643877 285.84530756 22 291.5 C15.49734537 300.03774181 8.98743515 308.56982437 2.4609375 317.08935547 C1.04318981 318.94351546 -0.36961724 320.8013384 -1.78125 322.66015625 C-4.16334939 325.79247802 -6.57502729 328.90070332 -9 332 C-9.58910156 332.76957031 -10.17820312 333.53914063 -10.78515625 334.33203125 C-18.49468589 343.86414473 -29.3082993 348.82707482 -41 351.75 C-57.5179504 353.12649587 -71.44086566 349.61235837 -84.25 338.8125 C-93.75815251 329.81830168 -99.35710581 318.52748115 -100.23828125 305.46875 C-100.5973631 286.26732061 -93.18464698 273.80763878 -81.58544922 259.03466797 C-78.4164152 254.96772472 -75.30747762 250.85461075 -72.1875 246.75 C-70.7996792 244.92693104 -69.41165893 243.10401391 -68.0234375 241.28125 C-67.00588379 239.94513672 -67.00588379 239.94513672 -65.96777344 238.58203125 C-60.46805613 231.36552874 -54.95078337 224.16242274 -49.43652344 216.95703125 C-42.26602487 207.58674687 -35.10657964 198.2081526 -27.9597168 188.81982422 C-24.77138698 184.63261527 -21.57959539 180.44821534 -18.375 176.2734375 C-17.80394531 175.52900391 -17.23289062 174.78457031 -16.64453125 174.01757812 C-15.60144612 172.6585943 -14.55730198 171.30042213 -13.51171875 169.94335938 C-12.56303493 168.70700189 -11.62488158 167.46247492 -10.69873047 166.20914936 C-9.51746541 164.67294866 -8.27387994 163.18351483 -6.98608398 161.73545361 C-0.5042726 153.97252079 0.14239427 147.54838465 0 137.70629883 C0.00762179 136.19728524 0.01875378 134.68828597 0.03309631 133.17932129 C0.06191595 129.11551109 0.04212279 125.05326871 0.0130806 120.98951554 C-0.00891677 116.73069019 0.01451054 112.4721102 0.03295898 108.21330261 C0.06101009 100.16341449 0.04866955 92.11412419 0.02153492 84.06425351 C-0.00738997 74.89359329 0.00914287 65.72318726 0.02934647 56.55252421 C0.06986577 37.70152445 0.0537791 18.85095489 0 0 Z " fill="#525B5B" transform="translate(363,548)"/>
<path d="M0 0 C4.43157628 4.07004229 7.55857117 8.56044573 10.8125 13.6015625 C11.37058853 14.45472046 11.92867706 15.30787842 12.50367737 16.18688965 C13.7100298 18.03184193 14.91380342 19.87848246 16.11526489 21.72662354 C19.34349082 26.69104215 22.59204162 31.64212483 25.83984375 36.59375 C26.50982895 37.61598663 27.17981415 38.63822327 27.87010193 39.69143677 C36.16337206 52.32631781 44.63322062 64.84137308 53.10351562 77.35791016 C53.6771434 78.20575073 54.25077118 79.05359131 54.84178162 79.92712402 C55.88027119 81.46142948 56.91943466 82.99527928 57.95960999 84.52844238 C58.44674973 85.24753784 58.93388947 85.9666333 59.43579102 86.70751953 C60.26188118 87.85772079 60.26188118 87.85772079 61.10466003 89.03115845 C62.69356707 91.52000653 63.90070651 93.87760693 65.1410675 96.5418396 C69.62568253 105.49482518 69.62568253 105.49482518 77.62711143 110.99789047 C85.54294765 112.58053434 93.57552378 112.10980659 101.59765625 111.8359375 C104.19968716 111.81461092 106.80180115 111.80186387 109.40391541 111.79727173 C115.53740856 111.77379563 121.66575939 111.66248018 127.79741424 111.51555789 C136.77423141 111.30385282 145.75245065 111.21280572 154.73132229 111.13674355 C155.72524969 111.1282649 155.72524969 111.1282649 156.73925644 111.11961496 C157.39679458 111.11403027 158.05433272 111.10844558 158.73179626 111.10269165 C163.84623818 111.05915735 168.95733924 110.9742734 174.0705719 110.85604858 C176.41691612 110.8169882 178.763265 110.77820613 181.10961914 110.73974609 C182.15460571 110.70643692 183.19959229 110.67312775 184.27624512 110.6388092 C195.14523744 110.50605233 203.85362712 113.8589242 212 121 C212.60585938 121.48984375 213.21171875 121.9796875 213.8359375 122.484375 C221.30035193 129.06870563 225.42521277 139.06486222 226.23828125 148.875 C226.56435706 162.60450778 222.75664508 173.69453569 213.34375 183.7734375 C203.24606782 193.15666103 191.24322056 195.30441683 177.96289062 195.2746582 C176.77798035 195.27976913 175.59307007 195.28488007 174.37225342 195.29014587 C171.14030259 195.30161893 167.90851181 195.30412204 164.6765461 195.30158257 C161.963665 195.30050654 159.25080706 195.30541298 156.53793097 195.310188 C150.12422776 195.32126104 143.71058312 195.32173495 137.296875 195.31567383 C130.72134352 195.30965419 124.14602712 195.32189868 117.57053232 195.3432439 C111.8937211 195.36098167 106.21697752 195.36684173 100.54013968 195.36360615 C97.16381806 195.36181021 93.78777018 195.36560968 90.41145325 195.37832069 C62.01926394 195.47205129 38.40689573 192.40065147 16.58203125 172.6015625 C10.01356831 165.98341376 4.42392698 159.06278307 -0.6328125 151.234375 C-1.23197479 150.3202887 -1.83113708 149.40620239 -2.44845581 148.4644165 C-4.34756136 145.56406642 -6.23659632 142.65732652 -8.125 139.75 C-9.98625808 136.89924925 -11.84960027 134.04987363 -13.71380615 131.2010498 C-14.94863398 129.3109517 -16.18030091 127.41878465 -17.40875244 125.52453613 C-20.56482237 120.66751569 -23.77234206 115.85932469 -27.08496094 111.10742188 C-27.74035858 110.15756409 -28.39575623 109.2077063 -29.0710144 108.22906494 C-30.32189693 106.42164073 -31.58651955 104.6236242 -32.86672974 102.83685303 C-36.99233723 96.84380574 -36.99233723 96.84380574 -37.02905273 92.80078125 C-36.68946533 91.87652344 -36.34987793 90.95226562 -36 90 C-35.64317139 89.00709961 -35.28634277 88.01419922 -34.91870117 86.99121094 C-34.46470947 85.91645508 -34.01071777 84.84169922 -33.54296875 83.734375 C-33.28777969 83.12364136 -33.03259064 82.51290771 -32.76966858 81.88366699 C-32.20982622 80.54461283 -31.64729022 79.20668242 -31.08239746 77.86975098 C-29.50708262 74.13828975 -27.95524526 70.39708229 -26.40234375 66.65625 C-26.0618399 65.83690979 -25.72133606 65.01756958 -25.37051392 64.17340088 C-21.02716064 53.6949084 -16.81401656 43.16395271 -12.60244751 32.63195801 C-11.70289195 30.38251092 -10.80248481 28.13340419 -9.9012146 25.88464355 C-8.6249217 22.69990529 -7.35108901 19.5141951 -6.078125 16.328125 C-5.50397606 14.895755 -5.50397606 14.895755 -4.91822815 13.43444824 C-3.1474407 8.99189316 -1.44392734 4.56265899 0 0 Z " fill="#525B5B" transform="translate(636,272)"/>
<path d="M0 0 C17.82989486 13.78490378 29.21884316 32.68042652 32.59375 55.02734375 C35.54426497 78.13412291 29.53589165 99.96880227 16.03515625 118.90625 C2.79574616 135.95228976 -16.29846264 147.73987236 -37.80566406 150.83105469 C-55.96132151 152.8021453 -73.71819799 150.82553521 -89.9375 142.0625 C-91.17693359 141.40121094 -91.17693359 141.40121094 -92.44140625 140.7265625 C-113.01788886 129.06977579 -125.96958478 111.40653705 -132.47973633 89.0480957 C-138.32622514 67.55710139 -135.0532478 44.08236902 -124.0859375 24.80859375 C-111.31188714 4.88412875 -93.06388651 -9.42825315 -69.9375 -14.9375 C-44.706853 -19.65693298 -20.90788769 -14.58892999 0 0 Z " fill="#525B5B" transform="translate(630.9375,15.9375)"/>
</svg>
